<svg width="32" height="32" viewBox="0 0 32 32" fill="none" xmlns="http://www.w3.org/2000/svg">
<path fill-rule="evenodd" clip-rule="evenodd" d="M7.2425 15.8309C11.9068 13.7988 15.0171 12.459 16.5733 11.8118C21.0167 9.96363 21.94 9.64257 22.5417 9.63195C22.6741 9.62963 22.9701 9.66245 23.1618 9.81801C23.4461 10.0488 23.4478 10.5496 23.4162 10.8811C23.1754 13.4111 22.1335 19.5507 21.6034 22.3843C21.3791 23.5833 20.9375 23.9854 20.51 24.0247C19.5809 24.1102 18.8753 23.4106 17.9754 22.8208C16.5672 21.8976 15.7716 21.323 14.4047 20.4223C12.825 19.3813 13.8491 18.8091 14.7493 17.8741C14.9849 17.6294 19.0787 13.9057 19.158 13.5679C19.1679 13.5256 19.1771 13.3681 19.0836 13.285C18.99 13.2019 18.8519 13.2303 18.7523 13.2529C18.6111 13.2849 16.3614 14.7719 12.0034 17.7136C11.3649 18.1521 10.7865 18.3658 10.2683 18.3546C9.697 18.3423 8.59812 18.0316 7.78119 17.766C6.77919 17.4403 5.98281 17.2681 6.05219 16.7149C6.08831 16.4268 6.48506 16.1321 7.2425 15.8309Z" fill="white"/>
</svg>
