<svg width="16" height="16" viewBox="0 0 16 16" fill="none" xmlns="http://www.w3.org/2000/svg">
<path d="M8 12C7.20888 12 6.43552 11.7654 5.77772 11.3259C5.11992 10.8864 4.60723 10.2616 4.30448 9.53074C4.00173 8.79983 3.92252 7.99556 4.07686 7.21964C4.2312 6.44372 4.61216 5.73098 5.17157 5.17157C5.73098 4.61216 6.44372 4.2312 7.21964 4.07686C7.99556 3.92252 8.79983 4.00173 9.53074 4.30448C10.2616 4.60723 10.8864 5.11992 11.3259 5.77772C11.7654 6.43552 12 7.20888 12 8C12 9.06087 11.5786 10.0783 10.8284 10.8284C10.0783 11.5786 9.06087 12 8 12ZM8 5.33334C7.47259 5.33334 6.95701 5.48973 6.51848 5.78275C6.07995 6.07577 5.73816 6.49224 5.53632 6.97951C5.33449 7.46678 5.28168 8.00296 5.38457 8.52024C5.48747 9.03753 5.74144 9.51268 6.11438 9.88562C6.48732 10.2586 6.96248 10.5125 7.47976 10.6154C7.99704 10.7183 8.53322 10.6655 9.02049 10.4637C9.50776 10.2618 9.92424 9.92005 10.2173 9.48152C10.5103 9.04299 10.6667 8.52742 10.6667 8C10.6667 7.29276 10.3857 6.61448 9.88562 6.11438C9.38552 5.61429 8.70725 5.33334 8 5.33334Z" fill="white"/>
<path d="M7.99998 10.0002C7.82317 10.0002 7.6536 9.92992 7.52858 9.8049C7.40355 9.67988 7.33331 9.51031 7.33331 9.3335V6.66683C7.33331 6.49002 7.40355 6.32045 7.52858 6.19543C7.6536 6.0704 7.82317 6.00016 7.99998 6.00016C8.53041 6.00016 9.03912 6.21088 9.41419 6.58595C9.78927 6.96102 9.99998 7.46973 9.99998 8.00016C9.99998 8.5306 9.78927 9.0393 9.41419 9.41438C9.03912 9.78945 8.53041 10.0002 7.99998 10.0002ZM7.99998 3.3335C7.82317 3.3335 7.6536 3.26326 7.52858 3.13823C7.40355 3.01321 7.33331 2.84364 7.33331 2.66683V2.00016C7.33331 1.82335 7.40355 1.65378 7.52858 1.52876C7.6536 1.40373 7.82317 1.3335 7.99998 1.3335C8.17679 1.3335 8.34636 1.40373 8.47138 1.52876C8.59641 1.65378 8.66665 1.82335 8.66665 2.00016V2.66683C8.66665 2.84364 8.59641 3.01321 8.47138 3.13823C8.34636 3.26326 8.17679 3.3335 7.99998 3.3335ZM11.7733 4.8935C11.6077 4.886 11.4508 4.81707 11.3333 4.70016C11.2091 4.57525 11.1395 4.40629 11.1395 4.23016C11.1395 4.05404 11.2091 3.88507 11.3333 3.76016L11.8066 3.28683C11.8664 3.21704 11.94 3.16036 12.0227 3.12035C12.1054 3.08033 12.1955 3.05784 12.2873 3.0543C12.3791 3.05075 12.4706 3.06622 12.5562 3.09974C12.6417 3.13325 12.7194 3.18409 12.7844 3.24906C12.8494 3.31403 12.9002 3.39173 12.9337 3.47728C12.9673 3.56283 12.9827 3.65439 12.9792 3.7462C12.9756 3.83801 12.9531 3.9281 12.9131 4.01081C12.8731 4.09352 12.8164 4.16706 12.7466 4.22683L12.2733 4.70016C12.2079 4.76524 12.1297 4.81602 12.0436 4.8493C11.9575 4.88258 11.8655 4.89763 11.7733 4.8935ZM14 8.66683H13.3333C13.1565 8.66683 12.9869 8.59659 12.8619 8.47157C12.7369 8.34654 12.6666 8.17697 12.6666 8.00016C12.6666 7.82335 12.7369 7.65378 12.8619 7.52876C12.9869 7.40373 13.1565 7.3335 13.3333 7.3335H14C14.1768 7.3335 14.3464 7.40373 14.4714 7.52876C14.5964 7.65378 14.6666 7.82335 14.6666 8.00016C14.6666 8.17697 14.5964 8.34654 14.4714 8.47157C14.3464 8.59659 14.1768 8.66683 14 8.66683ZM12.24 12.9068C12.0651 12.9061 11.8975 12.8367 11.7733 12.7135L11.3333 12.2402C11.2629 12.1135 11.2356 11.9673 11.2557 11.8238C11.2757 11.6803 11.342 11.5472 11.4445 11.4447C11.547 11.3422 11.6801 11.2759 11.8236 11.2559C11.9672 11.2358 12.1133 11.263 12.24 11.3335L12.7133 11.8068C12.8375 11.9317 12.9072 12.1007 12.9072 12.2768C12.9072 12.453 12.8375 12.6219 12.7133 12.7468C12.5822 12.8595 12.4125 12.9169 12.24 12.9068ZM7.99998 14.6668C7.82317 14.6668 7.6536 14.5966 7.52858 14.4716C7.40355 14.3465 7.33331 14.177 7.33331 14.0002V13.3335C7.33331 13.1567 7.40355 12.9871 7.52858 12.8621C7.6536 12.7371 7.82317 12.6668 7.99998 12.6668C8.17679 12.6668 8.34636 12.7371 8.47138 12.8621C8.59641 12.9871 8.66665 13.1567 8.66665 13.3335V14.0002C8.66665 14.177 8.59641 14.3465 8.47138 14.4716C8.34636 14.5966 8.17679 14.6668 7.99998 14.6668ZM3.75998 12.9068C3.67224 12.9073 3.58527 12.8905 3.50404 12.8573C3.42282 12.8242 3.34894 12.7753 3.28665 12.7135C3.16248 12.5886 3.09278 12.4196 3.09278 12.2435C3.09278 12.0674 3.16248 11.8984 3.28665 11.7735L3.75998 11.3335C3.88751 11.2243 4.05156 11.1672 4.21935 11.1737C4.38713 11.1802 4.54629 11.2497 4.66502 11.3685C4.78375 11.4872 4.85331 11.6463 4.85979 11.8141C4.86627 11.9819 4.8092 12.146 4.69998 12.2735L4.22665 12.7468C4.09727 12.8579 3.93027 12.9151 3.75998 12.9068ZM2.66665 8.66683H1.99998C1.82317 8.66683 1.6536 8.59659 1.52858 8.47157C1.40355 8.34654 1.33331 8.17697 1.33331 8.00016C1.33331 7.82335 1.40355 7.65378 1.52858 7.52876C1.6536 7.40373 1.82317 7.3335 1.99998 7.3335H2.66665C2.84346 7.3335 3.01303 7.40373 3.13805 7.52876C3.26307 7.65378 3.33331 7.82335 3.33331 8.00016C3.33331 8.17697 3.26307 8.34654 3.13805 8.47157C3.01303 8.59659 2.84346 8.66683 2.66665 8.66683ZM4.22665 4.8935C4.05175 4.89276 3.88415 4.82333 3.75998 4.70016L3.28665 4.22683C3.17743 4.0993 3.12036 3.93524 3.12684 3.76746C3.13332 3.59968 3.20287 3.44052 3.3216 3.32179C3.44033 3.20306 3.59949 3.1335 3.76728 3.12702C3.93506 3.12054 4.09911 3.17761 4.22665 3.28683L4.69998 3.76016C4.82415 3.88507 4.89384 4.05404 4.89384 4.23016C4.89384 4.40629 4.82415 4.57525 4.69998 4.70016C4.63769 4.76195 4.56381 4.81083 4.48258 4.84401C4.40136 4.87719 4.31438 4.894 4.22665 4.8935Z" fill="white"/>
</svg>
